<?xml version="1.0" encoding="UTF-8"?>
<svg xmlns="http://www.w3.org/2000/svg" version="1.1" viewBox="0 0 462.8 345.6">
  <defs>
    <style>
      .cls-1 {
        fill: none;
        stroke: #000;
        stroke-miterlimit: 10;
      }
    </style>
  </defs>
  <g id="Morsø">
    <polygon class="cls-1" points="81.2 243.9 82 245.4 81.9 246.9 82.5 250.7 80.4 255.5 82.3 255.5 82.3 257 81.2 257.7 78.6 256.8 76.8 258.9 76.8 259.9 79.9 260.2 81.9 261 84.8 261.7 84.7 264.2 78.7 267.7 73.7 266.6 71.6 267.5 70.1 269.2 68.7 268.5 67.3 269 68.9 273.9 69.2 276.9 67.2 276.7 64.7 278.9 62.6 279.4 61.8 281.4 61.8 284.2 61.5 285.7 64.9 283.1 66.6 281.2 69.9 283.2 71.3 284.7 71.7 285.6 68.2 286.7 69.9 290.7 69.3 291.6 72.4 290.3 73.9 289.3 72.8 286.8 73.7 286.1 72.1 284.2 74.1 283.5 74.9 285.8 75 287 78.3 286.3 79.1 287.1 76.9 288.2 77.3 290 79.5 292.5 80.3 294.6 81.2 298.4 81.3 299.8 88 297.4 90 296.3 93.4 296.6 99.9 293.6 99.3 290.6 100.4 288.9 103 285.9 104 284.6 105.7 283.7 108.3 281.5 108.2 279.5 109.8 278.8 109.3 275 110.8 271.9 113.1 270.7 111.7 268.6 113.4 267 114.9 270 114.8 264.7 111.1 259.9 109.5 252 108.1 247.5 110.2 244.7 111.6 243.2 114 245.7 115.2 244.4 116 245.5 116.6 248 116.1 249.9 118.2 243.1 119.8 237.3 121.5 235 120 229.8 119.6 226.2 122.6 219.9 117.5 226.5 114.4 226.6 112.5 225.2 111.3 228.3 108.4 231.7 107.1 238.1 102.4 239.3 97.1 240.8 94.7 242.6 90.1 242.3 87 242.8 83 243.1 81.2 243.9"/>
  </g>
  <g id="Mariagerfjord">
    <polygon class="cls-1" points="208.5 304.2 208.1 302.7 210 300.9 208.7 299 209.9 298.6 209.9 297.2 213.1 298.8 214.2 295 219.9 296.6 221 297.9 224.1 298.8 226.1 301.4 228.5 303 231.9 302.6 234.5 303.8 235.7 300 236 296.8 235 295.4 236.4 290.6 238.5 289.5 239.2 288.2 239.2 286.5 241.1 282.2 243.7 281.9 246.6 283.4 246.7 281.3 248.5 278.4 248 276.9 245.7 277.1 242.7 274 243.1 271.8 244.9 270.8 243.3 267.2 246.2 261 249.1 263.4 252.8 264.7 255.1 264.1 261.5 265.8 265.5 263.9 268.6 265.9 274.6 267.1 278.7 266.2 282.3 266.1 283.4 269.6 281.6 272.4 282.8 274.7 284.7 276.2 290.9 273.4 292.3 274.2 292.9 272.6 297 268.7 298.8 268.2 300.7 264.9 307.3 266.1 307.6 265.2 303.2 261.4 305.8 260.8 306.7 256.8 305.5 253.9 302.6 253.2 302.4 252 306.5 248.4 308.6 249.8 312.8 249.1 313.5 253.4 314.4 262.1 316.3 270.8 319.6 279.2 323 283.8 322.8 288 321.8 288.8 317.6 287.1 311.2 286.7 307.6 285 304.9 286.8 304 288.7 301.7 289.5 298.4 286.6 298.5 285.2 293.7 285.9 291 287.4 289.8 289 289.2 290.5 287.2 291.5 286.3 292.2 285.1 290.4 283.7 290.3 281.6 290.9 280.4 292.2 278.6 292.4 277.4 294.5 277 295.8 274.5 296.1 271.4 298.3 268.5 299.3 268.1 301.2 264.9 302.8 260.7 303.4 255.8 304.2 253 304.9 250.1 305 247 307 248.7 307.3 251.5 306.7 253.4 307.4 255.6 305.4 259.5 305.3 263.8 305.1 267.7 304.4 271.2 302.3 273.2 302.9 273.6 301.2 276 299.5 277 298.1 278.8 298.2 280.1 297.5 281 295 283.1 292.9 285.9 294.8 288.1 294.8 289.9 292.7 291.6 290.4 291.7 288.3 292.8 287.2 294 287.8 296.5 288.9 299.4 289.7 302 293.3 303.7 295.8 299.4 297.9 298.3 302.8 295.8 304.4 293.3 304.4 293.5 306.9 292 310 288.3 311.5 281.8 316.2 273 318.8 270 317.6 268.6 321.7 263.2 323.1 261.6 324.2 259.9 323.6 258.3 325.8 258.7 328.4 253.9 328.6 252 329.9 248.9 327.2 246.7 327 240.3 328.5 236.6 323.1 233.3 319.9 231.4 320.6 229.6 319.8 224.8 322.5 223.6 320.6 224.6 319.7 224.8 315.1 229.4 313.5 228.5 309.9 222.1 309 218 309.9 213.3 308.3 214.3 307 213.8 304.8 208.5 304.2"/>
  </g>
  <g id="Aalborg">
    <polygon class="cls-1" points="250.5 156.7 255.4 161.7 261.7 170 262.3 174.5 259.3 177.3 245.2 179.9 237.5 178.8 242.4 185.7 243.8 185.2 252.3 191.1 258.6 196.1 265.8 198.7 268.7 193.6 273.5 189.8 276.4 190 284 197.1 293 203.5 302.8 212.9 311 215.7 317.4 213.7 321.6 214.7 325.6 204.4 327.6 195.9 329.1 188.7 325.5 188.7 321.3 193.4 321.3 186.8 317.8 183.9 298.7 182.6 290.1 173.5 284.9 173.5 276.8 163.4 258.3 153 250.5 156.7"/>
    <polygon class="cls-1" points="251.8 193.6 247.7 194.4 248.1 196.6 251.9 199.1 255.7 197.1 256.3 196.2 254.2 194.2 251.8 193.6"/>
    <polygon class="cls-1" points="188.2 210.5 193.1 209.1 200.5 209.5 205.8 210.6 213.5 215.1 215 216.9 212.7 221.1 213.6 223.1 212.7 225.1 210.2 223 208.8 225.3 213.3 232.6 214.2 227.3 215.4 223.4 220.4 221.3 222.6 216.2 227.6 210.4 228.7 204.4 237.9 201.3 242.7 199.6 249.7 201.6 253 201.5 255.9 198.6 262.3 199 266.3 200 270.1 195.7 275 192.2 279.4 196.9 281.7 200.4 287.8 203.6 297.1 212.4 303.6 216.5 310.3 217.4 317.9 216.6 316.8 221 314.6 222.7 315.8 223.9 313.1 229.3 312.1 239.5 312.8 249.1 308.6 249.8 306.5 248.4 302.4 252 302.6 253.2 305.5 253.9 306.7 256.8 305.8 260.8 303.2 261.4 296.7 251.5 298.1 246 289.4 244.3 288.1 246.4 283.1 239.6 282.8 235.7 275.2 238.6 267.8 238.2 261.3 242.7 257 242.3 251.1 236 251.1 226.8 247.9 226.4 246.1 223.4 238.8 220.8 234.5 222.3 234.1 233.8 224.3 232.5 214.2 242.3 212.6 240.7 208.3 245.3 204.9 243.3 205.1 237 205.9 231.3 198.8 232 194.4 234.8 190.4 230.3 190.2 220.5 187.9 219 188.2 210.5"/>
  </g>
  <g id="Brønderslev">
    <polygon class="cls-1" points="241.1 133.5 241.1 133.5 254.4 124.1 264.9 129.8 265.6 125.9 282.8 130.8 282.9 126.6 289.6 127.4 301 125.7 303.3 138.3 303.8 147.8 310.2 147 314.1 142.6 318.3 143.8 319.1 140.1 327.5 145.8 326.4 150.3 336.3 167.6 329.2 188.9 325.7 188.9 321.5 193.6 321.4 187 318 184.1 298.8 182.8 290.3 173.7 285 173.7 277 163.6 258.4 153.2 250.7 156.9 236.8 151.7 237.8 147.8 242.9 142.9 242.9 139.2 241.1 133.5"/>
  </g>
  <g id="Hjørring">
    <polygon class="cls-1" points="265.8 58.5 284.9 59.5 309.1 51.5 319 54.2 315.8 68 330.1 87.2 316.6 97.7 314.6 101.3 322.2 110.5 327.4 110.4 321.4 114.2 306.1 114.6 298.7 122 300.8 125.5 289.4 127.3 282.7 126.4 282.6 130.6 265.5 125.8 264.8 129.6 254.3 123.9 241 133.3 229.4 120.9 243.7 89.3 265.8 58.5"/>
  </g>
  <g id="Frederikshavn">
    <polygon class="cls-1" points="361.2 17.7 351.5 16.9 309.1 51.5 319 54.2 315.8 68 330.1 87.2 316.6 97.7 314.6 101.3 322.2 110.5 327.4 110.4 321.4 114.2 306.1 114.6 298.7 122 300.8 125.5 303.2 138.1 303.6 147.6 310 146.8 313.9 142.5 318.2 143.6 318.9 139.9 327.3 145.6 326.3 150.1 336.1 167.4 350.7 151.2 348.2 125.1 345.7 108.5 351 96.4 342.6 83 331.7 63.4 339.9 39.5 352.6 25 361.2 17.7"/>
  </g>
  <g id="Læsø">
    <polygon class="cls-1" points="420.1 126.9 432.9 124.9 441.5 124.8 441.3 134.6 439.9 129.5 428.6 132.1 424.4 136 426.9 140.4 422.7 148.5 413.3 153.3 405.5 146.4 396 143.6 403.5 132.8 420.1 126.9"/>
  </g>
  <g id="Jammerbugt">
    <polygon class="cls-1" points="136.3 172.4 153.4 177.7 174.2 175.1 187.8 171.7 197.1 164.5 207.1 156.5 224.7 129.3 229.4 120.9 241 133.3 242.7 139 242.7 142.7 237.7 147.6 236.6 151.5 250.5 156.7 256.7 163.5 261.7 170 262 174.8 259.3 177.3 245.2 179.9 237.5 178.8 242.4 185.7 242.5 188 239.1 195.2 232.3 196.8 226.8 194 224.9 194.7 224.7 191.9 227.6 190.3 228.9 188.4 225.4 188.8 220.6 192.4 219.5 193.6 220.7 195.5 223.4 195.6 220.8 197.5 219.5 200.1 215.6 200.4 214.5 202.5 213.3 202.7 204.4 201.9 201.6 201.6 193.8 203.8 185.7 207.5 180.2 208.6 174.8 211.7 173.2 211.1 171.5 206.2 169 205.9 167.2 207.3 161.9 209 160.6 206.6 156.6 207.9 151.7 203.1 146 205.5 143.4 199.7 141.1 200.6 140.9 190.4 137.4 181.7 136.3 172.4"/>
  </g>
  <g id="Thisted">
    <polygon class="cls-1" points="24.4 291.5 22.5 286.1 20.4 285.2 23 266.7 32.2 242.8 40.8 226.3 42.1 223.8 43.6 223.4 57.2 203.3 58.5 201.9 60.3 202.2 67.2 195.1 74.5 183 78.9 180.7 92.3 186.6 95.8 187.9 111.2 184.1 122.6 177.3 128.2 173 132.5 173.3 136.3 172.4 137.4 181.7 140.9 190.4 141.1 200.6 143.4 199.7 146 205.5 141.6 208.7 138.7 211.6 137.2 211.5 136.9 208.5 135.4 207.7 130.2 209.2 127.9 212.6 125.4 212 122.9 212.8 121.2 214.8 120 217.7 119.7 218.6 117.9 218.5 116.5 216 113.3 215 111.8 216.8 111.1 214.9 109.8 215.9 108.2 215.5 108.1 217.2 110.9 219.5 110.2 221.2 104.9 223 102.4 224.6 101.5 226.5 97.9 227.9 94.1 226.6 89.3 225.4 89.2 226.7 86 226 84.8 227.8 83.8 231.4 84.4 233.5 81.8 235.9 81.2 239.7 79.1 242.6 79.9 245.8 78.9 247.9 80.2 248.9 76.9 253.8 74.4 257.2 72.2 260.1 71.4 260.8 66 261 66.1 264 63.7 263.9 59.3 266.6 57 269.8 56.9 271.2 60.7 276.5 61 277.6 59.5 279.2 58.6 283.5 57 286.5 55.3 287.8 57.8 287.5 60.7 287.7 62 287.5 63.8 288.6 62.7 291.1 64.8 290.8 63.6 293 62.6 295 63 296.9 59.5 295.7 58.1 293.6 54.3 292.1 51.1 293.6 49.2 296.1 46.4 295.8 47.2 299.1 43.2 297.2 40.6 297.5 39.8 294.4 38.1 292.2 36.9 289.2 34.8 287.2 33.1 281.8 32.9 277.3 30 273.2 26.4 271.1 25.4 284.4 24.4 291.5"/>
  </g>
  <g id="Vesthimmerlands">
    <polygon class="cls-1" points="156.6 207.9 161.5 213 165.4 215.3 169 215.7 172.5 213.7 174.8 211.7 173.2 211.1 171.5 206.2 169 205.9 167.2 207.3 161.9 209 160.6 206.6 156.6 207.9"/>
    <polygon class="cls-1" points="188.2 210.5 182.2 211.7 177.8 213.9 174 214.4 172.8 218.8 171.7 221 166.5 222.9 164.3 227 160.7 230.4 160.7 233 158.2 234.4 156 242.5 158.8 245.3 161.2 247 162.6 252.3 160.2 258.5 156.4 264.1 159.4 269.9 158.8 274.4 159 274.8 162.6 274.9 167.1 278.2 166.3 283.7 163.4 288.5 158.4 293.3 157.1 295.2 155.3 296.2 155.7 298.8 158.2 300.8 160.8 298.2 164.5 296.5 166.1 294.6 169.2 294 172.7 292 176.7 294.4 178.2 298.9 179.8 299.9 183.1 299.1 184.7 301.3 189.1 300.6 189 303.7 193.1 305.5 192.4 306.8 197.3 307.9 198.9 301.3 200.5 299.9 200.7 298.1 202.9 297.9 205.7 296 207.9 296.7 207.5 299 209.9 298.6 209.9 297.2 213.1 298.8 214.2 295 219.9 296.6 221.3 294.8 222 291.1 216.5 289.1 214.9 283.2 208.6 281.5 206.5 280.3 210.3 275.1 210.5 271.8 213.2 271 216.8 264.8 220.6 266.6 223.5 264.9 220.2 259.8 222 254.7 223.1 251.6 226.3 251.2 220.1 247.2 219.3 244 214.2 242.3 212.6 240.7 208.3 245.3 204.9 243.3 205.1 237 205.9 231.3 198.8 232 194.4 234.8 190.4 230.3 190.2 223.9 190.2 220.5 187.9 219 188.2 210.5"/>
    <polygon class="cls-1" points="145.1 238.7 146.9 242.4 147 245.8 151 250 144.1 243.8 142.2 241.5 144.1 238.5 145.1 238.7"/>
  </g>
  <g id="Rebild">
    <polygon class="cls-1" points="303.2 261.4 307.6 265.2 307.3 266.1 300.7 264.9 298.8 268.2 297 268.7 292.9 272.6 292.3 274.2 290.9 273.4 284.7 276.2 282.8 274.7 281.6 272.4 283.4 269.6 282.3 266.1 278.7 266.2 274.6 267.1 268.6 265.9 265.5 263.9 261.5 265.8 255.1 264.1 252.8 264.7 249.1 263.4 246.2 261 243.3 267.2 244.9 270.8 243.1 271.8 242.7 274 245.7 277.1 248 276.9 248.5 278.4 246.7 281.3 246.6 283.4 243.7 281.9 241.1 282.2 239.2 286.5 239.2 288.2 238.5 289.5 236.4 290.6 235 295.4 236 296.8 235.7 300 234.5 303.8 231.9 302.6 228.5 303 226.1 301.4 224.1 298.8 221 297.9 219.9 296.6 221.3 294.8 222 291.1 216.5 289.1 214.9 283.2 210.4 281.9 208.6 281.5 206.5 280.3 210.3 275.1 210.5 271.8 213.2 271 216.8 264.8 220.6 266.6 223.5 264.9 220.2 259.8 223.1 251.6 226.3 251.2 220.5 247.7 219.3 244 214.2 242.3 224.3 232.5 234.1 233.8 234.5 222.3 238.8 220.8 246.1 223.4 247.9 226.4 251.1 226.8 251.1 236 257 242.3 261.3 242.7 267.8 238.2 275.2 238.6 282.8 235.7 283.1 239.6 288.1 246.4 289.4 244.3 298.1 246 296.7 251.5 303.2 261.4"/>
  </g>
</svg>