<?xml version="1.0" encoding="UTF-8"?>
<svg id="Layer_1" data-name="Layer 1" xmlns="http://www.w3.org/2000/svg" version="1.1" xmlns:xlink="http://www.w3.org/1999/xlink" viewBox="0 0 462.8 345.6">
  <defs>
    <style>
      .cls-5 {
        fill:rgba(255, 255, 255, 0);
       }
  [data-kommune] path {
        fill: #e3f2fd;
        stroke: #1976d2;
        stroke-width: 2px;
        stroke-miterlimit: 10;
        cursor: pointer;
        transition: all 0.3s ease;
      }

      [data-kommune]:hover path {
        stroke: #ff6b35;
        stroke-width: 3px;
        filter: brightness(1.1);
      }

      #mapCounts text {
        font-family: 'Segoe UI', Arial, sans-serif;
        font-weight: bold;
        text-anchor: middle;
        pointer-events: none;
        text-shadow: 1px 1px 2px rgba(0,0,0,0.3);
        fill: #ff6b35;
        stroke: white;
        stroke-width: 2px;
      }

    </style>
    <clipPath id="clippath">
      <rect class="cls-6" width="462.8" height="345.6"/>
    </clipPath>
    <clipPath id="clippath-1">
      <rect class="cls-6" width="462.8" height="345.6"/>
    </clipPath>
    <clipPath id="clippath-2">
      <rect class="cls-6" width="462.8" height="345.6"/>
    </clipPath>
    <clipPath id="clippath-3">
      <rect class="cls-6" width="462.8" height="345.6"/>
    </clipPath>
    <clipPath id="clippath-4">
      <rect class="cls-6" width="462.8" height="345.6"/>
    </clipPath>
    <clipPath id="clippath-5">
      <rect class="cls-6" width="462.8" height="345.6"/>
    </clipPath>
    <clipPath id="clippath-6">
      <rect class="cls-6" width="462.8" height="345.6"/>
    </clipPath>
    <clipPath id="clippath-7">
      <rect class="cls-6" width="462.8" height="345.6"/>
    </clipPath>
    <clipPath id="clippath-8">
      <rect class="cls-6" width="462.8" height="345.6"/>
    </clipPath>
    <clipPath id="clippath-9">
      <rect class="cls-6" width="462.8" height="345.6"/>
    </clipPath>
    <clipPath id="clippath-10">
      <rect class="cls-6" width="462.8" height="345.6"/>
    </clipPath>
    <clipPath id="clippath-11">
      <rect class="cls-6" width="462.8" height="345.6"/>
    </clipPath>
    <clipPath id="clippath-12">
      <rect class="cls-6" width="462.8" height="345.6"/>
    </clipPath>
    <clipPath id="clippath-13">
      <rect class="cls-6" width="462.8" height="345.6"/>
    </clipPath>
    <clipPath id="clippath-14">
      <rect class="cls-6" width="462.8" height="345.6"/>
    </clipPath>
  </defs>
  <g id="figure_1" data-name="figure 1">
    <g id="Background">
      <path class="cls-5" d="M0,345.6h462.8V0H0v345.6Z"/>
    </g>
    <g id="axes_1" data-name="axes 1">
      <g id="Jammerbugt" data-kommune="Jammerbugt">
        <g class="cls-13">
          <path class="cls-2" fill="#e3f2fd" stroke="#1976d2" stroke-width="3" d="M160.4,177.7l1.4-.3,1.7-.2h1.9c0-.1.2-.1.2-.1h0s2.1-.2,2.1-.2h.3s.4,0,.4,0h.3c0,0,.4-.1.4-.1l1.7-.4,1.3-.4h0s5.7-2.4,5.7-2.4h.8s.7-.1.7-.1l3-.2,2-.3,1.8-.6,1.6-.7,1.1-.6h0s.4-.3.4-.3h0s2.4-1.7,2.4-1.7l2.9-2.3.3-.3,2.2-2,4.6-3.7h0s.8-.7.8-.7l1.6-1.2.6-.6.5-.3,1.4-1,.5-.5,1.4-1.7,2.5-3.4.9-1.3,1.1-1.6.6-1.1,2.8-4.2.6-1.1.5-.6.2-.4.2-.2h0s.5-.8.5-.8l.5-1,1-1.5.3-.5.8-1.2.7-.9.3-.5v-.3c.1,0,.4-.4.4-.4h0s.8-1.2.8-1.2l1.6-3.2,1.6-2.5,1.8-3.1,1.4-2.8h0s2.3.8,2.3.8l4.3,3.9,4.8,7.6v.2c.1,0,1.9,3.6,1.9,3.6v3.9c-.1,0,0,1.8,0,1.8l-2.7,2.6-2.4,2.3-1,3.9,4.9,2.1,8.9,3.1,1.6.6-1.1.9,3.6,1.6,2.4,6.2,3.6,2.6,1,1.3-.4,2.4,1,2.1-3,2.9-7.8-1.4v2c.1,0-.9-.7-.9-.7v.7s-3.8,0-3.8,0l-2.5,2.9-1.1-1.6-4-.4h-1.7c0,0,2,2.4,2,2.4l-.9.4,2.3,2.7,1.5,1.3h0s0,.7,0,.7h.4c0,.1,0,.3,0,.3v.2c0,0-.2.3-.2.3h0c0,.1,0,.6,0,.6v.2c-.1,0-.3.4-.3.4h.6c0,0,.3,0,.3,0v-.3s-.2-.4-.2-.4v-.2c.1,0,.4,0,.4,0l.8.5h.2c0,.1,0,.3,0,.3l-.4.5h-.2c0,0,0,0,0,0v-.2c0,0-.5-.1-.5-.1l-1,.4v.2c0,0,0,.3,0,.3v.2c-.1,0-.5,1.2-.5,1.2l-1,1.5-.9,1.1-.2.4.3.2v-.5c.1,0,1.2-1.4,1.2-1.4l-.2.6h0c0,0-.3.3-.3.3v.2c0,0-.7,1.2-.7,1.2l-.5.5-.3.2-.3.4-.5.3h-.4c0,.1-2.2.7-2.2.7l-1,.2h-.6c0-.1-1-.1-1-.1l-.4.2h-.4c0,0-.4.1-.4.1h-.2s0,0,0,0h0s0,0,0,0h0s-.1-.2-.1-.2l-.7-.4-.5-.6-.2-.2-.5-.3h-.6c0-.1-.8-.8-.8-.8h-.3c0,0,0,0,0,0h-.2s-.3.1-.3.1l-.5-.5h0s-.6,0-.6,0l-.9.6v.2c-.1,0-.4-.1-.4-.1h0c0,0-.2.1-.2.1l-.4-2,.4-1,.7-.5.9.2h.2c0-.1.8-.5.8-.5l.3-.8.8-.3.5-.9v-.7c0,0-.1,0-.1,0h-.2s-.2.1-.2.1v-.3c-.1,0-.5,0-.5,0h0s-.4,0-.4,0l-.4.5h-.2s.3-.3.3-.3l-1.7.5v.3c.1,0-2.6,1.3-2.6,1.3l-1.2,1.3h-.3s-.1-.4-.1-.4l-.3.4v.5c.1,0-.5,0-.5,0l.2.3-.2.3v.2c-.1,0-1.4,1-1.4,1h.5c0,.1,1.2,1.6,1.2,1.6l2-.3.7.4-1.5,1-.9.6h0c0,0-.1.1-.1.1h0c0,.1,0,.1,0,.1h0s0,0,0,0v.2s-.3.7-.3.7l-.4.4-.2.4h0s0,0,0,0l-.2.3-.3.5-.3.3h-.6c0,.1-.9.1-.9.1h-.4c0,0-.3,0-.3,0h-.2c0,0-.4-.4-.4-.4h-.5c0,0-.2.2-.2.2l-.6.4-.2.4-.2.2-.2.3v.4c-.1,0,0,.4,0,.4l.2-.2.4-.2h0s0,.1,0,.1h0c0,0-.2.3-.2.3l-.6.3h-.3s-.7-.1-.7-.1l-.7-.3h-.4s-.3,0-.3,0h0s-.4,0-.4,0l-.5-.4-1.1-.2h-5.3c0,0-.6.4-.6.4l-.3.2h0s-.4.2-.4.2h-.2s-.4-.3-.4-.3v-.3c0,0-.8-.5-.8-.5l-1,.4-.7.5-2.5.6v.2c-.1,0-.1,0-.1,0h0c0,.1-.7-.2-.7-.2h-.7c0,.1-1.9.6-1.9.6l-.4.2h-.1s0,0,0,0h-.4c0,0-1.7.7-1.7.7l-.6.4h-.3c0,0-.7.4-.7.4l-.3.2h0c0,0,0,.2,0,.2h0s.2.6.2.6h0s-.2,0-.2,0l-.2-.3h-.1c0,0,0,0,0,0h0s-.1,0-.1,0h-.1s-.1.1-.1.1h-.1s-.2,0-.2,0l-1.1.5h-.5c0,0-.2.2-.2.2l-.3.4-.5.2h-.8c0,0-.6-.2-.6-.2h-.8c0,0,0,0,0,0l-1.1.2-1.1.5-.7.5-.6.2-.8.5-2,1h-.3c0,0-.8.4-.8.4l-1.3.9h.1c0,.1-.2.3-.2.3h0s-1.2-.1-1.2-.1l-1.1-1.6-1-3.8-2.8-.4-1.4,1.4-5.3,1.7-1.1-2.5-4.2,1.4-.3-.2-.4-.6v-.6s-.7-.6-.7-.6h0c0,0,.6.7.6.7v.4c-.1,0,0,.3,0,.3h-.5c0,0,.6.3.6.3v.4c.1,0-.2-.1-.2-.1l-.2-.2-.8-.6v-.2s-.2-.2-.2-.2h0c0,0,0-.5,0-.5v-.2c-.1,0-.5-.4-.5-.4v-.2c0,0-.1.2-.1.2v.2c0,0,.3.2.3.2h.2s.2.6.2.6l-.2-.2h-.2c0,0-.5-1-.5-1h0s-.1,0-.1,0h0c0,0,0-.4,0-.4v-.3c-.1,0-.4-.6-.4-.6h-.1c0,0-.1,0-.1,0v-.2c-.1,0-.4-.3-.4-.3l-.5-.2-.2-.2v-.2s-4.6,2.1-4.6,2.1l-.8.4h-.2c0,0,0,0,0,0h0c0,0-2.7-6-2.7-6l-2.2,1-.2-10.2-.9-1.7-2.5-7-.7-9.2h0s.3,0,.3,0l.8.4,1.3.4,1.8.8.9.3.9.5,1.1.5,1.6.6,1.6.4h0s1.6.4,1.6.4l1.9.2,1.1.3,1.4.2h.4s0,0,0,0l2.9.2h2.5s1.5-.2,1.5-.2"/>
          <g id="patch_12" data-name="patch 12">
            <g class="cls-9">
<path d="M160.4,177.7c20.21279,-4.33131 37.32818,-8.0919 50.5,-26.3c6.28612,-8.68964 12.1106,-18.21642 17.2,-27.6c1.26877,-2.33929 0.79888,-4.06595 3.7,-2c20.87203,14.86342 3.03703,26.93389 4.9,29.8c2.37191,3.64909 14.19687,2.1906 15.4,5.8c1.05251,3.15753 3.02503,5.95004 4.9,8.7c1.57766,2.3139 6.79114,4.42214 5.2,8.4c-0.51655,1.29137 -1.62238,2.70866 -3,2.9c-2.61643,0.36339 -5.16623,-1.6026 -7.8,-1.4c-2.89451,0.22265 -4.46951,3.91399 -7.2,4.9c-2.22222,0.80247 -7.09305,-4.34443 -6.8,-2c0.59549,4.7639 6.64801,8.72201 6.9,9.1c0.55858,0.83787 -2.1,0.40839 -2.1,1.4c0,4.3077 -1.20986,4.18363 -3.4,6.1c-3.58243,3.13463 -14.3,-0.79716 -14.3,-2.7c0,-2.24489 2.06526,-0.69531 3,-1.8c0.52388,-0.61913 -0.65647,-1.63058 -0.4,-2.4c0.197,-0.59101 -4.3032,2.32277 -5.2,3.1c-0.14209,0.12314 -4.42826,2.46664 -0.9,3.9c0.83439,0.33897 3.14683,-0.68195 2.7,0.1c-1.6469,2.88208 -9.07393,6.89131 -9.1,6.9c-0.3178,0.10593 -0.67789,-0.00797 -1,-0.1c-16.19049,-4.62585 -23.61683,6.94526 -38,9c-3.06755,0.43822 -2.16862,-4.24953 -3.3,-5.5c-1.69225,-1.87039 -8.06584,2.87927 -9.5,2.7c-1.81899,-0.22737 -7.18264,-3.44791 -6.6,-1.7c0.31088,0.93265 0.10889,1.01779 -0.6,-0.4c-0.33555,-0.6711 -1.11882,-2.12823 -0.3,-0.9c0.70203,1.05304 -0.8,-0.10982 -0.8,-1c0,-2.43903 -6.23861,2.69598 -7.3,0.5c-4.3232,-8.94456 -8.61445,-19.63243 -9.2,-33.1c-0.11105,-2.55406 4.73247,1.93545 7.1,2.9c4.88735,1.99114 11.29362,2.79418 16.5,2.1"/><path d="M173.8,213.9c0,-0.58208 -6.22083,2.58612 -8,1.4c-1.31122,-0.87414 -8.89513,-7.22317 -8.4,-7.4c5.58126,-1.99331 22.61358,0.68642 17.2,6.1"/>            
            </g>
          </g>
        </g>
      </g>
      <g id="Thisted" data-kommune="Thisted">
        <g class="cls-3">
<path d="M66.1,196.6c5.42662,-8.13992 6.29967,-15.7 12.6,-15.7c7.18102,0 13.50983,8.2359 21.9,6.5c9.55416,-1.97672 22.65414,-15.53561 31.1,-14c1.52597,0.27745 4.41587,-2.24002 4.6,-0.7c1.00416,8.39841 2.18835,20.00535 4.3,28.1c0.58306,2.23508 5.49856,2.66902 4.9,4.9c-0.46755,1.74269 -3.27961,1.50634 -4.9,2.3c-0.18209,0.08919 -0.07485,0.39881 -0.1,0.6c-0.13703,1.09621 0.8185,-0.0185 1.1,-0.3c3.73858,-3.73858 -3.34918,3.30703 -4,3.4c-2.49734,0.35676 -0.78705,-4.54899 -6.1,-3.1c-2.84741,0.77657 -13.05118,6.39292 -12.5,9.7c0.06599,0.39593 1.2894,0.70265 0.9,0.8c-4.01445,1.00361 -9.01342,-5.30514 -12.4,-3.8c-1.91316,0.85029 2.15572,3.17384 2.5,3.5c0.88557,0.83896 -7.73528,7.07843 -9.3,7.6c-6.12195,2.04065 -12.09691,-3.60265 -14.9,-1.2c-3.5402,3.03446 -4.5491,21.86607 -5.8,22.7c-3.69416,2.46277 -4.0095,8.6257 -8.3,11.2c-5.32236,3.19342 -10.49496,1.85827 -14.9,9.2c-1.17773,1.96288 3.76511,5.27362 4.3,6.7c0.08377,0.22339 -2.04393,5.99036 -2.3,7.1c-0.21788,0.94415 -0.33104,2.6 -1.3,2.6c-0.08271,0 -2.61189,0.78811 -2.1,1.3c1.69853,1.69853 4.82206,0.03971 7.2,-0.3c3.49212,-0.49887 -2.18154,4.64308 0.6,3.6c0.2812,-0.10545 1.53147,-1.34263 1.7,-0.5c2.39328,11.96642 -9.18135,-0.58799 -11,0.9c-2.1268,1.74011 -3.30112,2.06202 -4.1,3.5c-0.50209,0.90377 -4.08082,-0.42694 -3.1,-0.1c0.54579,0.18193 0.84573,3.44858 0.1,3.2c-8.06429,-2.6881 -15.37493,-18.88732 -18.5,-26.7c-0.20228,-0.50569 -1.23188,-1.56812 -1.3,-1.5c-5.28366,5.28366 2.42941,14.97059 -1,18.4c-2.52127,2.52127 2.03772,-2.07246 -1.1,-2.7c-1.51241,-0.30248 1.46351,3.39562 0.5,4.6c-0.12967,0.16209 -2.8408,-10.45368 -2.8,-11.8c0.2689,-8.87382 2.07312,-17.22366 5.6,-25.6c4.03235,-9.57684 21.44443,-45.29629 29.7,-50.8c3.55391,-2.36927 5.41173,-1.69113 9.2,-6.9"/>        </g>
      </g>
      <g id="Vesthimmerland" data-kommune="Vesthimmerland">
        <g class="cls-14">
<path d="M156.9,239.3c2.48501,-10.93406 14.7529,-22.12645 22.7,-26.1c0.67753,-0.33877 8.18158,-3.17106 8.3,-2.5c0.95432,5.40782 0.34951,23.0938 6.3,24.4c2.42016,0.53125 7.55194,-3.00649 11.5,-3.5c1.15292,-0.14412 -2.15215,10.19632 -1.1,12c4.43852,7.6089 7.38501,-2.57406 7.8,-2.6c3.56827,-0.22302 6.15557,6.08823 7.9,7.1c1.93856,1.12437 6.76976,1.37966 5.8,3.4c-0.98675,2.05572 -6.36451,4.35461 -6.6,9.3c-0.09218,1.93573 5.04063,2.91124 3.8,4.4c-1.5157,1.81884 -4.87941,-1.02131 -7.1,-0.2c-2.11735,0.78313 -9.55264,13.91581 -10,15.6c-0.23692,0.89194 3.50139,1.49244 3.9,1.6c3.85673,1.0407 12.51542,8.86281 10.8,13c-1.40392,3.38592 -3.12378,1.02399 -6.2,0.2c-2.76163,-0.73972 -0.22041,3.7 -1.9,3.7c-1.96695,0 -6.41754,1.99764 -5.9,0.1c0.18585,-0.68143 1.33175,-2.31588 0.7,-2c-0.46284,0.23142 -1.00541,-0.24782 -1.5,-0.4c-0.92885,-0.2858 -2.27785,-1.04658 -2.9,-0.3c-1.21944,1.46332 -4.21501,10.75357 -5.6,11.8c-3.9731,3.0019 -11.55624,-10.29375 -17.4,-8.7c-0.71909,0.19612 -1.67295,0.12705 -2.2,-0.4c-2.08418,-2.08418 -0.55243,-5.15354 -3.8,-6.7c-5.9504,-2.83352 -14.86603,12.80096 -18.8,6.9c-1.93786,-2.90678 11.82869,-13.99133 11.3,-20.6c-0.24377,-3.04713 -8.51779,-0.8509 -8.3,-3.9c0.23302,-3.26234 -2.34773,-8.67493 -2.2,-10.3c0.4482,-4.93015 6.89017,-7.96884 6,-14.2c-0.00943,-0.066 0.01499,-0.13504 0,-0.2c-1.18963,-5.15506 -7.4642,-4.28598 -5.6,-10.5"/>        </g>
        <g id="Vesthimmerland-2" data-name="Vesthimmerland">
          <g class="cls-10">
<path d="M151,250c-3.39535,-3.39535 -10.63459,-6.84416 -6.7,-11.4c0.979,-1.13358 2.49716,3.32527 2.7,3.9c0.94298,2.67178 1.52857,4.2653 4.2,7.7"/>          </g>
        </g>
      </g>
      <g id="Aalborg" data-kommune="Aalborg">
        <g class="cls-17">
          <path d="M251,198.9c-0.84753,-0.84753 -1.68535,-0.88117 -2.4,-1.8c-5.53134,-7.11172 16.06691,-0.47063 4.9,1.5c-1.05318,0.18585 -1.28098,0.46761 -2.2,0.1"/>        </g>
        <g id="Aalborg-2" data-name="Aalborg">
          <g class="cls-7">
<path d="M251.6,178c0,-6.4951 7.73766,3.65586 10.6,-3.5c1.89754,-4.74385 -12.86987,-18.88804 -11.7,-19.2c18.21448,-4.85719 30.05371,12.94852 46.8,27c4.07518,3.41941 18.47196,1.4737 20.6,1.8c5.90021,0.9047 1.55092,5.70183 3.5,9.6c0.93962,1.87924 2.47875,-3.49512 4.2,-4.7c0.98308,-0.68815 2.46158,-0.37947 3.6,0c0.26859,0.08953 -1.08097,6.8985 -1.1,7c-0.07004,0.37355 0.432,0.7436 0.3,1.1c-0.88453,2.38823 -2.47464,9.44928 -6,16.5c-1.28736,2.57472 -4.82127,0.41125 -5.6,0.3c-3.62144,-0.51735 -5.65997,2.76858 -9.4,1.7c-12.62116,-3.60604 -19.77316,-23.01133 -31.2,-25.7c-7.19009,-1.69179 -6.31109,6.41109 -7.9,8c-1.96854,1.96854 -8.44347,-0.92457 -10.7,-2.2c-5.05757,-2.85863 -16.38176,-11.81555 -17.4,-14.5c-0.89415,-2.3573 -3.84235,-2.81073 -0.3,-2.5c1.33857,0.11742 2.7575,-0.01162 4,0.5c2.21202,0.91083 5.72707,-3.17105 8.4,-1.3"/>          </g>
        </g>
        <g id="Aalborg-3" data-name="Aalborg">
          <g class="cls-8">
<path d="M250.7,201.5c3.82659,0 4.90338,-4.23311 8.4,-4c1.28064,0.08538 7.24762,4.85397 9.2,1.6c1.4854,-2.47566 2.76728,-6.35651 6.3,-6.9c0.29651,-0.04562 0.60302,-0.04243 0.9,0c3.46252,0.49465 1.36859,3.8294 4.1,5c4.11454,1.76337 12.41974,16.64302 22.2,18.9c4.72296,1.08991 13.43289,-0.18904 15.5,0.5c1.41174,0.47058 -1.2,2.8119 -1.2,4.3c0,1.60109 -2.41176,3.57253 -3.5,7.2c-0.78651,2.6217 0.81221,19.73223 -0.6,20.8c-2.89316,2.18751 -8.14126,0.3621 -10.4,3.2c-1.31048,1.6465 4.43028,2.09639 4.5,3.7c0.09514,2.18821 -0.24164,6.67578 -3.8,5.6c-8.12676,-2.45693 -3.54943,-11.94044 -5.1,-15.3c-1.39749,-3.02789 -7.11142,1.96649 -10,0.3c-3.3661,-1.94198 -3.67052,-8.14991 -5.4,-10.6c-0.59591,-0.8442 -2.14057,-0.38377 -3.1,0c-3.40237,1.36095 -19.90939,7.96846 -22.7,6.7c-10.29371,-4.67896 -2.19325,-16.043 -17.2,-21.5c-1.98326,-0.72119 -6.01173,-0.12964 -6.4,2.8c-0.44843,3.38362 3.96528,8.69864 0.9,10.2c-3.63308,1.77947 -7.13112,-2.31903 -9.8,-1.3c-6.44609,2.46123 -10.09287,13.6706 -16.1,12.8c-6.34848,-0.92007 -1.97184,-14.0428 -2.3,-14c-3.9002,0.50872 -9.11545,4.02344 -11.5,3.5c-5.56942,-1.22256 -5.90893,-19.08146 -6.3,-24.4c-0.09201,-1.25139 2.39041,-0.76632 3.6,-1.1c4.75261,-1.31106 21.53501,1.24002 23,7.1c0.58237,2.32946 -1.7,4.59884 -1.7,7c0,0.04728 -0.24215,1.90174 -0.7,1.8c-1.12569,-0.25015 -0.67408,-2.68426 -1.6,-2.8c-4.25713,-0.53214 0.03275,9.07965 1.9,10.2c0.85502,0.51301 0.90074,-9.05111 1.2,-9.5c0.62455,-0.93682 4.49612,-0.7065 5.6,-1.7c4.25749,-3.83174 5.63201,-11.77469 8,-17.3c2.8283,-6.59936 18.03069,-3.1 22.1,-3.1"/>          </g>
        </g>
      </g>
      <g id="Frederikshavn" data-kommune="Frederikshavn">
        <g class="cls-15">
<path d="M316.3,95.7c3.34215,0 5.10662,-4.32119 7.8,-6.3c1.74194,-1.27979 7.24561,-0.36702 6.1,-2.2c-3.35443,-5.36709 -14.04597,-11.65167 -14.3,-19.2c-0.15858,-4.71197 4.67068,-9.35469 3.1,-13.8c-1.0781,-3.05122 -10.43214,-0.10767 -9.2,-3.1c1.36745,-3.32095 43.75897,-38.56185 48.8,-35.3c4.04114,2.61485 0.78,3.02 -1.9,5.7c-7.64561,7.64561 -28.9895,24.42408 -24.9,41.6c1.70381,7.15602 10.08264,23.04722 14.9,25.8c0.27342,0.15624 3.72843,6.91572 3.7,7.2c-0.05244,0.52443 -1.06147,-0.20765 -1.5,-0.5c-0.45695,-0.30463 -4.58253,10.37948 -4.1,18.1c0.78001,12.48013 6.20735,22.17146 5.4,36.3c-0.18837,3.29655 -6.8277,5.45541 -8.4,8.6c-0.4104,0.82081 -4.58227,7.51823 -5.4,7.6c-0.57257,0.05726 -1.20039,-0.01451 -1.7,-0.3c-5.73361,-3.27635 0.48928,-7.01787 -2.5,-12c-1.62517,-2.70862 -7.53464,-3.52785 -6.8,-6.6c0.45411,-1.89899 4.52893,-3.17831 1.3,-5.6c-8.00788,-6.00591 -12.37589,4.86241 -19,4.2c-1.23436,-0.12344 -3.18015,1.52634 -3.7,0.4c-1.65208,-3.57951 -0.34331,-8.02706 0.8,-11.8c2.09911,-6.92707 -13.27468,-12.40595 -0.2,-17.2c1.78754,-0.65543 0.2144,-5.45205 2.2,-6.5c2.66704,-1.4076 5.82241,1.62211 8.8,2.1c2.64402,0.42435 9.50142,-0.30142 11.8,-2.6c1.42016,-1.42016 -6.23693,-1.06206 -7.7,-2.2c-4.15368,-3.23064 -2.81204,-9.98025 -3.4,-13.9"/>        </g>
      </g>
      <g id="Mariagerfjord" data-kommune="Mariagerfjord">
        <g class="cls-12">
<path d="M243.7,281.9c10.75776,5.56436 -6.87581,-14.69694 2.6,-20.8c1.07664,-0.69343 1.87896,1.78092 3,2.4c1.92461,1.06285 10.19986,2.67717 12.4,2.3c2.28826,-0.39227 18.55155,-1.7236 20.8,0.3c1.76679,1.59012 -2.47653,10.91648 2.3,10.2c10.88089,-1.63213 11.87156,-10.4708 22.7,-10c2.08077,0.09047 -3.24938,-2.85723 -4,-4.8c-0.81301,-2.10426 3.89799,-3.34627 3.8,-5.6c-0.11477,-2.63973 -11.87985,-3.14134 -0.4,-7.4c1.9778,-0.7337 4.2192,0.9468 6.3,0.6c0.42209,-0.07035 0.99912,14.83011 1.1,15.2c1.69601,6.21871 9.38743,18.66285 8.5,23.1c-0.51662,2.58311 -3.52341,-0.65015 -5.1,-0.5c-3.69909,0.35229 -8.10599,-2.49867 -10.8,-1.9c-2.14148,0.47589 -1.85838,5.21387 -4.9,4.2c-1.66973,-0.55658 -1.51418,-4.70575 -3.2,-4.2c-10.33525,3.10057 -22.96904,10.76904 -29.8,17.6c-3.61644,3.61644 -14.71758,-1.43538 -18.6,4c-0.2031,0.28434 0.7181,-0.07285 0.9,0.2c0.34094,0.51142 16.88952,-2.11714 18.6,-3.4c1.5125,-1.13437 4.26313,0.43687 5.6,-0.9c2.00087,-2.00087 5.13161,-8.05897 8.7,-10.2c1.34594,-0.80757 3.3873,3.7127 5,2.1c1.0905,-1.0905 2.7437,-6.4958 4.1,-7.4c1.49635,-0.99757 13.28878,7.31519 11.3,9.1c-5.17343,4.64282 -5.83627,4.23154 -10.4,8.2c-1.44057,1.25267 0.22987,4.33512 -1.2,5.6c-5.90578,5.22434 -17.70749,4.70494 -22.1,7.6c-4.56615,3.00951 -5.1349,3.59268 -10.1,6c-1.48401,0.71952 0.21988,3.96098 -1.2,4.8c-1.97033,1.16429 -4.47458,2.0341 -6.7,1.5c-3.84131,-0.92191 -7.93817,-1.93178 -11.8,-1.1c-3.61837,0.77934 -3.24042,-8.14552 -6.9,-8.7c-3.7555,-0.56902 -4.55818,2.14012 -8.5,2.6c-3.31049,0.38622 5.02807,-11.85151 3.7,-12.7c-7.63637,-4.87879 -20.90731,0.72926 -18.5,-8.9c0.1996,-0.7984 -1.97647,-0.75764 -1.2,-2c1.42383,-2.27812 2.96707,-0.2 4.4,-0.2c1.68702,0 -0.9007,-4.7002 1.9,-3.9c6.76202,1.93201 10.18891,6.72334 16.7,7.7c0.94396,0.14159 1.75641,1.64661 2.6,1.2c1.6366,-0.86644 1.75077,-21.26355 9,-22.1"/>        </g>
      </g>
      <g id="Morsø" data-kommune="Morsø">
        <g class="cls-18">
<path d="M119.1,240.6c-0.32421,1.29686 -2.78538,9.51462 -3,9.3c-0.26877,-0.26877 1.28682,-4.31318 0.4,-5.2c-0.09718,-0.09718 -0.26667,-0.06667 -0.4,-0.1c-2.83476,-0.70869 -5.70946,-2.32634 -8,3.4c-3.00774,7.51934 9.11466,14.99871 7,22.4c-0.36319,1.27117 -2.00364,-2.45927 -3.3,-2.2c-1.31111,0.26222 0.64546,3.05454 -0.3,4c-4.27857,4.27857 -5.48816,15.8858 -10,21.3c-3.32566,3.9908 -13.39636,5.12753 -18.9,6.7c-0.52417,0.14976 -0.7,-7.44009 -0.7,-4.4c0,1.16885 0.1057,-3.63658 -2.5,-5.2c-0.28151,-0.16891 -0.16786,-0.66786 -0.4,-0.9c-0.61393,-0.61393 0.91556,-1.41556 1.1,-1.6c3.3739,-3.3739 -3.80606,0.31212 -3.4,-0.5c0.42301,-0.84602 0.53877,-3.37464 -0.6,-3.7c-2.04864,-0.58532 1.55376,5.17312 -4.1,8c-1.13333,0.56667 0.38735,-2.63036 -0.1,-3.8c-1.04354,-2.5045 2.9974,-0.80779 2.1,-3.5c-2.46114,-7.38343 -8.52993,2.37007 -9.8,1.1c-0.60599,-0.60599 0.98326,-3.26652 0.6,-2.5c-0.02981,0.05963 -0.05547,-0.16302 0,-0.2c2.75136,-1.83424 7.30847,-2.74661 7.9,-6c0.43185,-2.37518 -1.92347,-5.5704 -2.6,-7.6c-0.30179,-0.90536 9.02597,-1.30673 11.3,-1.1c0.33451,0.03041 2.19666,-0.7119 2.6,-1c1.05002,-0.75001 3.67964,-1.35839 4,-2.8c1.12294,-5.05323 -6.02476,-1.44971 -7.9,-3.7c-1.20028,-1.44034 2.72549,-3.97451 4.3,-2.4c0.72122,0.72122 -1.1,-10.78875 -1.1,-13.9c0,-1.36015 2.6423,-0.68212 3.9,-1.2c6.27351,-2.58321 15.98961,1.2328 22.3,-3.5c2.01598,-1.51198 0.12291,-5.62291 1.6,-7.1c1.88168,-1.88168 3.41135,-3.44541 4.1,-6.2c0.13909,-0.55637 0.61248,0.97725 1,1.4c2.1608,2.35723 7.8,-1.93779 7.8,-4.8c0,-0.48534 -0.0461,-1.20881 0.4,-1.4c0.94383,-0.4045 0.8038,-2.74905 1.8,-2.5c0.9876,0.2469 -1.39518,3.78232 -1.7,4.9c-1.65003,6.05011 -1.72537,11.35221 -2.8,17.8"/>        </g>
      </g>
      <g id="Hjørring" data-kommune="Hjørring">
        <g class="cls-1">
<path d="M253.3,79c4.96907,-5.96289 6.69589,-16.34692 12.9,-21c0.89324,-0.66993 20.22163,2.16802 28.1,-0.1c5.03981,-1.45085 21.55429,-11.85389 24.4,-3.8c1.57068,4.44531 -3.25858,9.08803 -3.1,13.8c0.25403,7.54833 10.94557,13.83291 14.3,19.2c0.71403,1.14245 -17.66276,10.4505 -15.6,14.1c0.79737,1.41074 5.20007,9.02001 7.6,9.3c0.47623,0.05556 6.89792,-0.33621 5.2,1.2c-2.415,2.185 -9.1647,2.95505 -12,2.5c-2.97759,-0.47789 -6.13296,-3.5076 -8.8,-2.1c-3.6305,1.9161 -6.94816,12.93612 -10.1,15.3c-3.21988,2.41491 -14.75699,-3.54234 -13.5,0.7c0.2375,0.80155 0.4528,1.97776 -0.2,2.5c-2.67096,2.13677 -10.28497,-3.69886 -12.7,-4.4c-2.43161,-0.70595 -4.73782,3.61172 -7.1,2.7c-1.91622,-0.73959 -2.94036,-2.88984 -4.6,-4.1c-1.07802,-0.78605 -2.57807,-1.08026 -3.9,-0.9c-5.1604,0.70369 -6.24514,10.09498 -13.4,9.3c-3.05169,-0.33908 -2.99469,-5.39219 -4.9,-7.8c-1.67594,-2.11794 -6.17566,-2.03272 -6.6,-4.7c-1.15512,-7.26075 17.41945,-35.2027 23.3,-41.9"/>        </g>
      </g>
      <g id="Læsø" data-kommune="Læsø">
        <g class="cls-11">
<path d="M429.8,131.8c-8.47062,0 -1.96167,6.4696 -3.5,10.7c-0.36252,0.99694 -1.37293,3.77989 -2.7,3.8c-2.53326,0.03838 -5.62163,-1.4827 -7.6,0.1c-2.00693,1.60555 5.49613,-0.92232 7.7,0.4c0.86495,0.51897 -4.58166,3.33735 -4.7,3.4c-4.74547,2.51231 -5.61967,2.18787 -5.9,2.3c-1.52684,0.61073 -5.34017,-5.18689 -6.1,-6.2c-0.84819,-1.13092 -7.4884,0.99132 -9.7,-2.8c-1.22411,-2.09847 2.91854,-4.21854 4.1,-5.4c1.5723,-1.5723 1.99318,-3.25908 2.3,-5.1c0.19242,-1.15454 2.21769,-0.75434 3.3,-1.2c5.61985,-2.31406 23.76423,-9.28793 29.9,-7.4c6.56108,2.01879 11.49175,10.7 4,10.7c-2.06667,0 0.40531,-4.17347 0,-6.2c-0.21975,-1.09876 -1.02769,2.00359 -1.7,2.9c-0.31338,0.41784 -7.48594,0.47438 -8.3,0.8"/>        </g>
      </g>
      <g id="Brønderslev" data-kommune="Brønderslev">
        <g class="cls-4">
<path d="M295.1,127.6c2.92154,0 0.87177,-3.59239 4.9,-3c2.79037,0.41035 3.09894,21.26437 3.9,23c0.51985,1.12634 2.46564,-0.52344 3.7,-0.4c6.62411,0.66241 10.99212,-10.20591 19,-4.2c4.07882,3.05912 -3.41993,3.97771 -0.1,7.2c5.36351,5.20576 7.16763,8.34041 4.7,13.5c-0.75463,1.57786 4.21807,3.45344 5.2,3.8c2.27992,0.80468 -0.55887,4.9883 -1.9,7c-1.09604,1.64406 -3.82117,7.12702 -4.6,11.8c-0.11277,0.67663 0.44669,1.80747 -0.5,2.2c-2.61346,1.08363 -5.09235,2.71067 -7,4.8c-2.42591,2.65695 -0.74735,-9.33158 -4.3,-9.9c-2.42206,-0.38753 -16.44096,1.83757 -20.6,-1.7c-8.77071,-7.46014 -12.87947,-10.85249 -20.4,-18.7c-0.23064,-0.24066 -0.27593,-0.72198 -0.6,-0.8c-7.54121,-1.81548 -11.06107,-9.08475 -16,-9.4c-3.45066,-0.22025 -6.3957,4.00521 -9.8,3.4c-4.87057,-0.86588 -11.20397,-1.05227 -13.9,-5.2c-2.07285,-3.189 5.02484,-7.04788 6.1,-8.8c1.85908,-3.02962 -1.73136,-6.82902 -1.8,-9.3c-0.07317,-2.63422 5.73535,-0.54284 7.5,-2.5c1.31013,-1.45305 -0.41439,-4.3508 0.9,-5.8c1.0117,-1.11546 3.58183,1.59362 4.5,0.4c0.90252,-1.17327 3.20395,-1.47212 4.4,-0.6c0.37073,0.27033 4.73956,6.90849 6.6,4.8c1.36415,-1.54603 3.11994,-4.07486 5.1,-3.5c3.01309,0.87477 6.49879,3.87108 9.4,4.7c7.01724,2.00493 1.32188,-4.65825 3.3,-4.5c4.28122,0.3425 4.41491,0.66197 6.7,0.9c1.86135,0.19389 5.6,-1.47142 5.6,0.4"/>        </g>
      </g>
      <g id="Rebild" data-kommune="Rebild">
        <g class="cls-16">
<path d="M301.5,259.6c1.89414,2.00556 4.23397,3.58077 6,5.7c1.47382,1.76858 -4.66503,-0.85217 -6.9,-0.3c-5.91356,1.461 -7.80173,9.95526 -16.1,11.2c-4.80232,0.72035 -0.50663,-8.5308 -2.3,-10.1c-2.356,-2.0615 -18.42271,-0.67357 -20.8,-0.3c-2.12732,0.33429 -10.52859,-1.36654 -12.4,-2.4c-1.12104,-0.61908 -1.92336,-3.09343 -3,-2.4c-7.80632,5.0278 -2.04135,13.95046 1.8,15.8c0.46624,0.22449 0.54662,1.00373 0.4,1.5c-1.25061,4.23284 -7.80616,5.23038 -12,12.3c-1.36358,2.29861 1.00479,11.81511 -1.8,13.3c-2.10298,1.11334 -14.70125,-5.28751 -14.5,-7.3c0.03417,-0.34165 3.07805,-4.73493 2.1,-5.4c-2.93012,-1.99248 -4.7095,-5.29646 -7,-8c-1.9148,-2.26009 -9.16046,-0.03711 -8.4,-2.9c0.44736,-1.68419 7.88265,-14.81687 10,-15.6c2.22169,-0.82172 5.53276,2.0762 7.1,0.3c1.28217,-1.45313 -3.89218,-2.46427 -3.8,-4.4c0.23549,-4.94539 5.61325,-7.24428 6.6,-9.3c0.14153,-0.29486 -9.59468,-7.22893 -9.8,-7.3c-0.88255,-0.3055 -2.34241,-0.66703 -2.3,-1.6c0.5208,-11.45768 16.14937,-6.71194 19.8,-8.5c2.72403,-1.33422 -5.48499,-16.49509 5.5,-12.9c14.33385,4.69108 6.73212,16.64187 17.2,21.4c2.75407,1.25185 19.21696,-5.27645 22.7,-6.6c0.96594,-0.36706 2.50409,-0.8442 3.1,0c1.72948,2.45009 2.0339,8.65802 5.4,10.6c2.88858,1.66649 8.60251,-3.32789 10,-0.3c0.77924,1.68836 -1.85414,3.5968 -1.4,5.4c0.76649,3.04343 3.2,5.4 4.8,8.1"/>        </g>
      </g>
    <g id="mapCounts">
    </g>
    </g>
  </g>
</svg>